<svg width="42" height="42" viewBox="0 0 42 42" fill="none" xmlns="http://www.w3.org/2000/svg">
<g id="bi:github" clip-path="url(#clip0_1_106)">
<path id="Vector" d="M20.9995 -4.57764e-05C9.39701 -4.57764e-05 -0.000488281 9.39745 -0.000488281 20.9999C-0.000488281 30.2924 6.01076 38.1412 14.3583 40.9237C15.4083 41.1074 15.802 40.4774 15.802 39.9262C15.802 39.4274 15.7758 37.7737 15.7758 36.0149C10.4995 36.9862 9.13451 34.7287 8.71451 33.5474C8.47826 32.9437 7.45451 31.0799 6.56201 30.5812C5.82701 30.1874 4.77701 29.2162 6.53576 29.1899C8.18951 29.1637 9.37076 30.7124 9.76451 31.3424C11.6545 34.5187 14.6733 33.6262 15.8808 33.0749C16.0645 31.7099 16.6158 30.7912 17.2195 30.2662C12.547 29.7412 7.66451 27.9299 7.66451 19.8974C7.66451 17.6137 8.47826 15.7237 9.81701 14.2537C9.60701 13.7287 8.87201 11.5762 10.027 8.6887C10.027 8.6887 11.7858 8.13745 15.802 10.8412C17.482 10.3687 19.267 10.1325 21.052 10.1325C22.837 10.1325 24.622 10.3687 26.302 10.8412C30.3183 8.1112 32.077 8.6887 32.077 8.6887C33.232 11.5762 32.497 13.7287 32.287 14.2537C33.6258 15.7237 34.4395 17.5874 34.4395 19.8974C34.4395 27.9562 29.5308 29.7412 24.8583 30.2662C25.6195 30.9224 26.2758 32.1824 26.2758 34.1512C26.2758 36.9599 26.2495 39.2174 26.2495 39.9262C26.2495 40.4774 26.6433 41.1337 27.6933 40.9237C31.8624 39.5167 35.4851 36.8375 38.0516 33.2633C40.618 29.6892 41.9988 25.4001 41.9995 20.9999C41.9995 9.39745 32.602 -4.57764e-05 20.9995 -4.57764e-05Z" fill="white"/>
</g>
<defs>
<clipPath id="clip0_1_106">
<rect width="42" height="42" fill="white" transform="translate(-0.000488281 -4.57764e-05)"/>
</clipPath>
</defs>
</svg>
