<svg width="18" height="19" viewBox="0 0 18 19" fill="none" xmlns="http://www.w3.org/2000/svg">
<g id="closed eye">
<path id="Vector" d="M16.0307 12.8047C15.9664 12.8413 15.8956 12.8649 15.8222 12.8742C15.7488 12.8834 15.6743 12.8781 15.603 12.8585C15.5317 12.8389 15.4649 12.8054 15.4066 12.76C15.3482 12.7146 15.2994 12.6581 15.2628 12.5938L13.9269 10.2594C13.1502 10.7845 12.2935 11.1802 11.39 11.4308L11.8028 13.9072C11.8149 13.9801 11.8126 14.0547 11.796 14.1267C11.7793 14.1987 11.7486 14.2667 11.7057 14.3269C11.6627 14.387 11.6083 14.4381 11.5456 14.4772C11.4828 14.5163 11.413 14.5427 11.3401 14.5548C11.3101 14.5597 11.2798 14.5623 11.2494 14.5625C11.1163 14.5623 10.9877 14.5149 10.8862 14.4288C10.7848 14.3427 10.7171 14.2234 10.6953 14.0921L10.2896 11.6607C9.43408 11.7798 8.56615 11.7798 7.71058 11.6607L7.30488 14.0921C7.28305 14.2236 7.21522 14.3431 7.11349 14.4293C7.01175 14.5154 6.88273 14.5627 6.74941 14.5625C6.71832 14.5624 6.68729 14.5598 6.6566 14.5548C6.58369 14.5427 6.51387 14.5163 6.45115 14.4772C6.38843 14.4381 6.33403 14.387 6.29107 14.3269C6.2481 14.2667 6.21741 14.1987 6.20074 14.1267C6.18408 14.0547 6.18177 13.9801 6.19394 13.9072L6.60879 11.4308C5.70572 11.1794 4.84943 10.783 4.07332 10.2573L2.7416 12.5938C2.70467 12.6581 2.65542 12.7146 2.59667 12.7599C2.53792 12.8052 2.47081 12.8385 2.39919 12.8579C2.32756 12.8773 2.25282 12.8824 2.17923 12.8729C2.10563 12.8634 2.03463 12.8395 1.97027 12.8026C1.90592 12.7657 1.84946 12.7164 1.80414 12.6577C1.75881 12.5989 1.7255 12.5318 1.70611 12.4602C1.68672 12.3886 1.68163 12.3138 1.69112 12.2402C1.70062 12.1666 1.72451 12.0956 1.76145 12.0313L3.1677 9.57033C2.67375 9.14359 2.21954 8.67291 1.81066 8.16408C1.75967 8.10715 1.72082 8.04042 1.69647 7.96797C1.67213 7.89552 1.6628 7.81887 1.66907 7.7427C1.67533 7.66653 1.69705 7.59243 1.73291 7.52493C1.76876 7.45743 1.81799 7.39795 1.8776 7.35011C1.9372 7.30227 2.00594 7.26708 2.07959 7.24669C2.15325 7.2263 2.2303 7.22113 2.30602 7.23151C2.38174 7.24188 2.45455 7.26757 2.52002 7.30702C2.58548 7.34647 2.64221 7.39885 2.68676 7.46096C3.85395 8.90518 5.89582 10.625 8.99941 10.625C12.103 10.625 14.1449 8.90307 15.3121 7.46096C15.3561 7.39758 15.4127 7.34394 15.4784 7.30338C15.544 7.26282 15.6173 7.2362 15.6937 7.22519C15.7701 7.21417 15.8479 7.21899 15.9224 7.23935C15.9968 7.25971 16.0663 7.29516 16.1264 7.34352C16.1866 7.39187 16.2361 7.45208 16.272 7.52041C16.3079 7.58874 16.3293 7.66372 16.335 7.74068C16.3406 7.81765 16.3304 7.89496 16.3049 7.9678C16.2794 8.04064 16.2392 8.10745 16.1868 8.16408C15.7779 8.67291 15.3237 9.14359 14.8297 9.57033L16.236 12.0313C16.2737 12.0954 16.2984 12.1664 16.3085 12.2402C16.3186 12.3139 16.314 12.3889 16.2949 12.4609C16.2758 12.5328 16.2426 12.6002 16.1972 12.6593C16.1519 12.7183 16.0953 12.7677 16.0307 12.8047Z" fill="white"/>
</g>
</svg>
