<svg xmlns="http://www.w3.org/2000/svg" xmlns:xlink="http://www.w3.org/1999/xlink" width="500" zoomAndPan="magnify" viewBox="0 0 375 374.999991" height="500" preserveAspectRatio="xMidYMid meet" version="1.0"><defs><g/></defs><path stroke-linecap="butt" transform="matrix(0.75, 0, 0, 0.75, 93.749998, -31.295249)" fill="none" stroke-linejoin="miter" d="M 229.010434 220.013472 C 226.562517 209.555138 221.234392 198.924929 213.015641 188.122845 C 204.796891 177.325969 197.869807 170.638469 192.23439 168.055135 C 186.598973 165.47701 172.708347 164.185343 150.56772 164.185343 L 102.281259 164.185343 L 102.281259 280.117643 L 135.286469 280.117643 C 153.078137 280.117643 165.375013 276.211392 172.16668 268.398892 C 178.958347 260.5916 183.166681 248.805141 184.796889 233.049931 L 200.281265 233.049931 L 200.281265 346.539522 L 184.796889 346.539522 C 183.166681 330.914521 179.364597 318.72702 173.38543 309.966603 C 167.411472 301.206186 154.708346 296.820769 135.286469 296.820769 L 102.281259 296.820769 L 102.281259 396.044734 C 102.281259 403.112442 104.250009 408.815568 108.187509 413.159318 C 112.130218 417.508277 123.604177 420.565568 142.619803 422.331194 L 142.619803 436.997861 L 17.520837 436.997861 L 17.520837 422.331194 C 33.005213 421.107235 42.411463 420.190568 45.739589 419.581193 C 49.067714 418.96661 52.088547 416.898902 54.807297 413.367651 C 57.526048 409.836401 58.880214 404.945776 58.880214 398.695775 L 58.880214 190.060345 C 58.880214 180.555136 55.250006 173.831177 47.98438 169.888469 C 40.713547 165.950968 30.562504 163.440552 17.520837 162.35201 L 17.520837 147.883259 L 244.08856 147.883259 L 244.08856 220.013472 Z M 229.010434 220.013472 " stroke="#000000" stroke-width="25.557787" stroke-opacity="1" stroke-miterlimit="4"/><g fill="#ffde59" fill-opacity="1"><g transform="translate(93.749998, 296.454729)"><g><path d="M 171.75 -162.734375 C 169.914062 -170.585938 165.914062 -178.5625 159.75 -186.65625 C 153.59375 -194.757812 148.398438 -199.773438 144.171875 -201.703125 C 139.941406 -203.640625 129.523438 -204.609375 112.921875 -204.609375 L 76.703125 -204.609375 L 76.703125 -117.65625 L 101.46875 -117.65625 C 114.8125 -117.65625 124.03125 -120.582031 129.125 -126.4375 C 134.21875 -132.300781 137.375 -141.144531 138.59375 -152.96875 L 150.21875 -152.96875 L 150.21875 -67.84375 L 138.59375 -67.84375 C 137.375 -79.5625 134.519531 -88.703125 130.03125 -95.265625 C 125.550781 -101.835938 116.03125 -105.125 101.46875 -105.125 L 76.703125 -105.125 L 76.703125 -30.71875 C 76.703125 -25.414062 78.179688 -21.132812 81.140625 -17.875 C 84.097656 -14.613281 92.707031 -12.320312 106.96875 -11 L 106.96875 0 L 13.140625 0 L 13.140625 -11 C 24.753906 -11.914062 31.804688 -12.601562 34.296875 -13.0625 C 36.796875 -13.519531 39.0625 -15.070312 41.09375 -17.71875 C 43.132812 -20.375 44.15625 -24.046875 44.15625 -28.734375 L 44.15625 -185.203125 C 44.15625 -192.335938 41.429688 -197.378906 35.984375 -200.328125 C 30.535156 -203.285156 22.921875 -205.171875 13.140625 -205.984375 L 13.140625 -216.84375 L 183.0625 -216.84375 L 183.0625 -162.734375 Z M 171.75 -162.734375 "/></g></g></g></svg>