<svg xmlns="http://www.w3.org/2000/svg" xmlns:xlink="http://www.w3.org/1999/xlink" width="500" zoomAndPan="magnify" viewBox="0 0 375 374.999991" height="500" preserveAspectRatio="xMidYMid meet" version="1.0"><path fill="#000000" d="M 95.710938 136.363281 L 137.300781 136.363281 C 138.578125 135 139.941406 133.808594 141.390625 132.699219 L 119.316406 81.308594 Z M 95.710938 136.363281 " fill-opacity="1" fill-rule="nonzero"/><path fill="#000000" d="M 332.386719 136.363281 C 295.816406 136.363281 214.789062 136.363281 178.976562 136.363281 C 155.941406 136.152344 136.089844 155.589844 136.363281 178.976562 C 136.363281 178.976562 136.363281 238.636719 136.363281 238.636719 L 136.363281 332.386719 C 136.363281 355.882812 155.480469 375 178.976562 375 L 332.386719 375 C 355.882812 375 375 355.882812 375 332.386719 L 375 178.976562 C 375 155.480469 355.882812 136.363281 332.386719 136.363281 Z M 306.816406 230.113281 L 297.714844 230.113281 C 295.808594 251.285156 286.933594 270.9375 272.753906 286.269531 L 295.789062 309.308594 C 301.226562 314.359375 297.066406 324.128906 289.773438 323.863281 C 287.589844 323.863281 285.410156 323.027344 283.746094 321.367188 L 260.214844 297.835938 C 253.089844 303.835938 225.496094 317.785156 217.203125 322.789062 C 213.171875 325.058594 207.910156 323.625 205.621094 319.472656 C 203.328125 315.367188 204.808594 310.167969 208.933594 307.890625 L 240.9375 290.113281 C 243.402344 288.75 245.683594 287.171875 247.953125 285.570312 L 215.566406 253.183594 C 207.734375 245.285156 219.691406 233.277344 227.617188 241.132812 C 227.617188 241.132812 260.71875 274.226562 260.71875 274.226562 C 271.773438 262.074219 278.855469 246.707031 280.679688 230.105469 L 204.546875 230.105469 C 199.832031 230.105469 196.023438 226.296875 196.023438 221.582031 C 196.023438 216.871094 199.832031 213.058594 204.546875 213.058594 L 247.160156 213.058594 L 247.160156 196.015625 C 247.191406 184.910156 264.160156 184.832031 264.203125 196.015625 C 264.203125 196.015625 264.203125 213.058594 264.203125 213.058594 L 306.816406 213.058594 C 317.941406 213.128906 317.992188 230.054688 306.816406 230.113281 Z M 306.816406 230.113281 " fill-opacity="1" fill-rule="nonzero"/><path fill="#000000" d="M 42.613281 238.636719 L 119.316406 238.636719 L 119.316406 178.976562 C 119.316406 169.859375 121.363281 161.164062 125.113281 153.410156 L 88.378906 153.410156 L 76.023438 182.300781 C 71.625 192.578125 55.96875 185.820312 60.339844 175.652344 C 60.339844 175.652344 111.476562 56.335938 111.476562 56.335938 C 112.839844 53.183594 115.910156 51.136719 119.316406 51.136719 C 122.726562 51.136719 125.796875 53.183594 127.160156 56.335938 L 156.136719 123.921875 C 171.195312 115.960938 218.769531 120.382812 238.636719 119.316406 C 238.636719 119.316406 238.636719 42.613281 238.636719 42.613281 C 238.636719 19.117188 219.519531 0 196.023438 0 L 42.613281 0 C 19.117188 0 0 19.117188 0 42.613281 L 0 196.023438 C 0 219.519531 19.117188 238.636719 42.613281 238.636719 Z M 42.613281 238.636719 " fill-opacity="1" fill-rule="nonzero"/></svg>