<svg xmlns="http://www.w3.org/2000/svg" xmlns:xlink="http://www.w3.org/1999/xlink" width="500" zoomAndPan="magnify" viewBox="0 0 375 374.999991" height="500" preserveAspectRatio="xMidYMid meet" version="1.0"><path fill="#000000" d="M 375 187.5 C 375 83.945312 291.054688 0 187.5 0 C 83.945312 0 0 83.945312 0 187.5 C 0 291.054688 83.945312 375 187.5 375 C 291.054688 375 375 291.054688 375 187.5 Z M 168.449219 336.933594 C 170.285156 338.199219 172.65625 336.8125 172.65625 334.582031 L 172.65625 270.25 C 172.65625 268.667969 171.398438 267.371094 169.816406 267.308594 C 156.207031 266.769531 142.894531 265.613281 130.015625 263.882812 C 127.914062 263.601562 126.195312 265.550781 126.800781 267.582031 C 130.976562 281.671875 136.171875 294.28125 142.082031 305.039062 C 150.898438 321.097656 160.050781 331.121094 168.449219 336.933594 Z M 206.734375 267.242188 C 205.15625 267.3125 203.90625 268.605469 203.90625 270.1875 L 203.90625 333.453125 C 203.90625 335.734375 206.378906 337.109375 208.203125 335.738281 C 216.144531 329.785156 224.675781 320.050781 232.917969 305.039062 C 238.828125 294.28125 244.023438 281.671875 248.199219 267.582031 C 248.804688 265.550781 247.085938 263.601562 244.984375 263.882812 C 232.59375 265.546875 219.804688 266.679688 206.734375 267.242188 Z M 206.957031 235.953125 C 205.292969 236.03125 203.90625 234.699219 203.90625 233.03125 L 203.90625 171.519531 C 203.90625 169.945312 205.144531 168.65625 206.714844 168.574219 C 223.460938 167.714844 239.65625 165.75 254.941406 162.777344 C 256.667969 162.445312 258.316406 163.675781 258.441406 165.433594 C 258.953125 172.621094 259.21875 179.984375 259.21875 187.5 C 259.21875 201.742188 258.261719 215.441406 256.503906 228.414062 C 256.332031 229.667969 255.367188 230.664062 254.121094 230.878906 C 239.261719 233.441406 223.464844 235.179688 206.957031 235.953125 Z M 169.59375 137.351562 C 171.265625 137.4375 172.65625 136.101562 172.65625 134.433594 L 172.65625 40.414062 C 172.65625 38.1875 170.285156 36.800781 168.449219 38.066406 C 160.050781 43.878906 150.898438 53.902344 142.082031 69.960938 C 133.390625 85.785156 126.242188 105.613281 121.601562 128.261719 C 121.285156 129.832031 122.292969 131.359375 123.863281 131.675781 C 138.023438 134.546875 153.375 136.511719 169.59375 137.351562 Z M 203.90625 134.347656 C 203.90625 136.023438 205.308594 137.359375 206.980469 137.265625 C 222.621094 136.382812 237.4375 134.453125 251.136719 131.675781 C 252.707031 131.359375 253.714844 129.832031 253.398438 128.261719 C 248.757812 105.613281 241.609375 85.785156 232.917969 69.960938 C 224.675781 54.949219 216.144531 45.214844 208.203125 39.261719 C 206.378906 37.890625 203.90625 39.265625 203.90625 41.546875 Z M 169.613281 236.023438 C 171.277344 236.097656 172.65625 234.765625 172.65625 233.101562 L 172.65625 171.59375 C 172.65625 170.015625 171.410156 168.722656 169.835938 168.648438 C 152.539062 167.835938 135.816406 165.839844 120.058594 162.777344 C 118.332031 162.445312 116.683594 163.675781 116.558594 165.433594 C 116.046875 172.621094 115.78125 179.984375 115.78125 187.5 C 115.78125 201.742188 116.738281 215.441406 118.496094 228.414062 C 118.667969 229.667969 119.632812 230.664062 120.878906 230.878906 C 136.207031 233.519531 152.539062 235.292969 169.613281 236.023438 Z M 264.570312 323.449219 C 262.011719 324.90625 259.277344 321.984375 260.683594 319.394531 C 270.09375 302.089844 277.660156 281.464844 282.8125 258.570312 C 283.0625 257.472656 283.90625 256.609375 285 256.335938 C 300.664062 252.46875 315.316406 247.671875 328.652344 242.050781 C 331.035156 241.046875 333.5 243.335938 332.535156 245.738281 C 319.292969 278.683594 295.152344 306.078125 264.570312 323.449219 Z M 289.050781 218.683594 C 288.859375 220.757812 290.8125 222.394531 292.804688 221.785156 C 312.070312 215.902344 328.753906 208.515625 342.074219 200.128906 C 342.855469 199.636719 343.347656 198.804688 343.410156 197.882812 C 343.636719 194.453125 343.75 190.988281 343.75 187.5 C 343.75 169.667969 340.761719 152.53125 335.261719 136.570312 C 334.648438 134.789062 332.523438 134.089844 330.921875 135.078125 C 319.429688 142.164062 305.988281 148.296875 291.078125 153.328125 C 289.769531 153.769531 288.933594 155.046875 289.0625 156.417969 C 289.984375 166.527344 290.46875 176.914062 290.46875 187.5 C 290.46875 198.125 289.984375 208.542969 289.050781 218.683594 Z M 31.589844 197.882812 C 31.648438 198.804688 32.144531 199.636719 32.925781 200.128906 C 46.246094 208.515625 62.929688 215.902344 82.195312 221.785156 C 84.1875 222.394531 86.140625 220.757812 85.949219 218.683594 C 85.015625 208.542969 84.53125 198.125 84.53125 187.5 C 84.53125 176.914062 85.011719 166.527344 85.9375 156.417969 C 86.066406 155.046875 85.230469 153.769531 83.921875 153.328125 C 69.011719 148.296875 55.570312 142.164062 44.078125 135.078125 C 42.476562 134.089844 40.351562 134.789062 39.738281 136.570312 C 34.238281 152.53125 31.25 169.667969 31.25 187.5 C 31.25 190.988281 31.363281 194.453125 31.589844 197.882812 Z M 92.183594 258.570312 C 91.9375 257.472656 91.09375 256.609375 90 256.335938 C 74.339844 252.46875 59.683594 247.671875 46.347656 242.050781 C 43.964844 241.046875 41.5 243.335938 42.464844 245.738281 C 55.707031 278.683594 79.847656 306.078125 110.429688 323.449219 C 112.988281 324.90625 115.722656 321.984375 114.316406 319.394531 C 104.90625 302.089844 97.339844 281.464844 92.183594 258.570312 Z M 318.601562 102.460938 C 319.453125 103.765625 319.105469 105.507812 317.804688 106.371094 C 309.386719 111.976562 299.117188 117.09375 287.324219 121.5 C 285.652344 122.125 283.828125 121.089844 283.457031 119.34375 C 278.296875 95.285156 270.488281 73.640625 260.683594 55.601562 C 259.277344 53.015625 262.011719 50.09375 264.570312 51.550781 C 286.40625 63.953125 304.957031 81.464844 318.601562 102.460938 Z M 87.675781 121.5 C 89.347656 122.125 91.171875 121.089844 91.546875 119.34375 C 96.703125 95.285156 104.511719 73.640625 114.316406 55.601562 C 115.722656 53.015625 112.988281 50.09375 110.429688 51.550781 C 88.59375 63.953125 70.042969 81.464844 56.398438 102.460938 C 55.546875 103.765625 55.898438 105.507812 57.195312 106.371094 C 65.613281 111.976562 75.882812 117.09375 87.675781 121.5 Z M 87.675781 121.5 " fill-opacity="1" fill-rule="evenodd"/></svg>