<svg width="42" height="42" viewBox="0 0 42 42" fill="none" xmlns="http://www.w3.org/2000/svg">
<g id="devicon:google" clip-path="url(#clip0_1_97)">
<path id="Vector" d="M14.6306 1.38135C10.4341 2.83714 6.81513 5.60027 4.30513 9.26489C1.79513 12.9295 0.526449 17.3024 0.685429 21.7414C0.844409 26.1803 2.42267 30.4513 5.1884 33.927C7.95413 37.4026 11.7615 39.8998 16.0514 41.0517C19.5292 41.9491 23.173 41.9885 26.6695 41.1665C29.837 40.455 32.7653 38.9332 35.1679 36.7499C37.6685 34.4083 39.4836 31.4293 40.4179 28.1334C41.4332 24.5491 41.6139 20.7799 40.9462 17.1149L21.4162 17.1149L21.4162 25.2163L32.7267 25.2163C32.5006 26.5085 32.0162 27.7417 31.3025 28.8422C30.5887 29.9428 29.6602 30.888 28.5726 31.6213C27.1917 32.5353 25.6347 33.15 24.0018 33.426C22.3643 33.7306 20.6847 33.7306 19.0472 33.426C17.3873 33.0833 15.8172 32.3982 14.437 31.4146C12.2194 29.8448 10.5542 27.6147 9.67919 25.0424C8.78961 22.422 8.78961 19.5812 9.67919 16.9607C10.3021 15.1239 11.3317 13.4515 12.6914 12.0684C14.2473 10.4565 16.2172 9.30425 18.3849 8.73816C20.5525 8.17208 22.8342 8.214 24.9797 8.85932C26.6557 9.37357 28.1884 10.2725 29.4553 11.4843C30.7306 10.2156 32.0037 8.94354 33.2747 7.66823C33.9309 6.98245 34.6462 6.32948 35.2926 5.62729C33.3584 3.82758 31.0882 2.4271 28.612 1.50604C24.1026 -0.131335 19.1685 -0.175338 14.6306 1.38135Z" fill="white"/>
<path id="Vector_2" d="M14.6306 1.38136C19.1681 -0.176388 24.1022 -0.133544 28.612 1.50277C31.0887 2.43008 33.3579 3.83731 35.2894 5.6437C34.6331 6.34589 33.9408 7.00214 33.2714 7.68464C31.9983 8.95558 30.7262 10.2221 29.4553 11.4843C28.1884 10.2725 26.6557 9.37358 24.9797 8.85933C22.835 8.21174 20.5533 8.1674 18.3851 8.73117C16.2168 9.29494 14.2458 10.445 12.6881 12.0553C11.3285 13.4384 10.2988 15.1108 9.67593 16.9476L2.8739 11.6812C5.30862 6.85304 9.52417 3.15988 14.6306 1.38136Z" fill="#E33629"/>
<path id="Vector_3" d="M1.06922 16.8984C1.43455 15.0864 2.04154 13.3316 2.87391 11.6812L9.67593 16.9607C8.78635 19.5812 8.78635 22.422 9.67593 25.0424C7.40969 26.7924 5.14234 28.5512 2.87391 30.3187C0.790807 26.1722 0.155498 21.4478 1.06922 16.8984Z" fill="#F8BD00"/>
<path id="Vector_4" d="M21.4163 17.1117L40.9462 17.1117C41.614 20.7766 41.4332 24.5458 40.418 28.1301C39.4836 31.426 37.6685 34.405 35.168 36.7467C32.9728 35.0338 30.7678 33.3342 28.5727 31.6213C29.661 30.8873 30.5899 29.941 31.3037 28.8393C32.0175 27.7376 32.5015 26.5031 32.7267 25.2098L21.4163 25.2098C21.413 22.5126 21.4163 19.8121 21.4163 17.1117Z" fill="#587DBD"/>
<path id="Vector_5" d="M2.87061 30.3187C5.13904 28.5687 7.40639 26.8099 9.67263 25.0424C10.5494 27.6156 12.2169 29.8459 14.437 31.4146C15.8215 32.3937 17.395 33.0731 19.057 33.4096C20.6945 33.7142 22.3742 33.7142 24.0117 33.4096C25.6445 33.1336 27.2015 32.5189 28.5825 31.6049C30.7776 33.3178 32.9826 35.0174 35.1778 36.7303C32.7756 38.9147 29.8471 40.4377 26.6793 41.1501C23.1829 41.9721 19.5391 41.9327 16.0612 41.0353C13.3106 40.3008 10.7413 39.0061 8.51435 37.2323C6.15752 35.3607 4.23244 33.0025 2.87061 30.3187Z" fill="#319F43"/>
</g>
<defs>
<clipPath id="clip0_1_97">
<rect width="42" height="42" fill="white" transform="translate(-0.000488281 -4.57764e-05)"/>
</clipPath>
</defs>
</svg>
