<svg xmlns="http://www.w3.org/2000/svg" xmlns:xlink="http://www.w3.org/1999/xlink" width="500" zoomAndPan="magnify" viewBox="0 0 375 374.999991" height="500" preserveAspectRatio="xMidYMid meet" version="1.0"><path fill="#ffffff" d="M 362.269531 182.738281 C 361.757812 181.582031 349.351562 154.0625 321.761719 126.472656 C 285.019531 89.726562 238.589844 70.300781 187.5 70.300781 C 136.410156 70.300781 89.980469 89.726562 53.238281 126.472656 C 25.648438 154.0625 13.242188 181.582031 12.730469 182.738281 C 12.054688 184.253906 11.71875 185.839844 11.71875 187.5 C 11.71875 189.15625 12.054688 190.742188 12.730469 192.257812 C 13.242188 193.417969 25.648438 220.929688 53.238281 248.515625 C 89.980469 285.253906 136.410156 304.675781 187.5 304.675781 C 238.589844 304.675781 285.019531 285.253906 321.761719 248.515625 C 349.351562 220.929688 361.757812 193.417969 362.269531 192.257812 C 362.945312 190.742188 363.28125 189.15625 363.28125 187.5 C 363.28125 185.839844 362.945312 184.253906 362.269531 182.738281 Z M 187.5 281.238281 C 142.410156 281.238281 103.015625 264.851562 70.410156 232.539062 C 56.9375 219.167969 45.652344 204.15625 36.550781 187.5 C 45.648438 170.839844 56.9375 155.824219 70.410156 142.449219 C 103.015625 110.128906 142.414062 93.738281 187.5 93.738281 C 232.585938 93.738281 271.984375 110.128906 304.589844 142.449219 C 318.066406 155.824219 329.351562 170.839844 338.449219 187.5 C 327.882812 207.203125 281.882812 281.238281 187.5 281.238281 Z M 187.5 117.1875 C 186.347656 117.1875 185.199219 117.214844 184.050781 117.273438 C 182.902344 117.328125 181.753906 117.414062 180.609375 117.527344 C 179.464844 117.640625 178.320312 117.78125 177.183594 117.949219 C 176.042969 118.117188 174.910156 118.316406 173.78125 118.539062 C 172.652344 118.765625 171.53125 119.015625 170.414062 119.296875 C 169.300781 119.574219 168.191406 119.882812 167.089844 120.214844 C 165.988281 120.550781 164.894531 120.910156 163.8125 121.296875 C 162.730469 121.6875 161.65625 122.101562 160.59375 122.539062 C 159.53125 122.980469 158.476562 123.445312 157.4375 123.9375 C 156.398438 124.429688 155.371094 124.949219 154.355469 125.492188 C 153.339844 126.035156 152.339844 126.601562 151.351562 127.191406 C 150.363281 127.785156 149.394531 128.398438 148.4375 129.039062 C 147.480469 129.675781 146.539062 130.339844 145.613281 131.023438 C 144.691406 131.710938 143.785156 132.417969 142.894531 133.148438 C 142.003906 133.878906 141.132812 134.628906 140.28125 135.402344 C 139.429688 136.175781 138.59375 136.96875 137.78125 137.78125 C 136.96875 138.597656 136.175781 139.429688 135.402344 140.28125 C 134.628906 141.132812 133.878906 142.003906 133.148438 142.894531 C 132.417969 143.785156 131.710938 144.691406 131.023438 145.617188 C 130.339844 146.539062 129.675781 147.480469 129.039062 148.4375 C 128.398438 149.394531 127.78125 150.367188 127.191406 151.351562 C 126.597656 152.339844 126.03125 153.339844 125.488281 154.355469 C 124.949219 155.371094 124.429688 156.398438 123.9375 157.4375 C 123.445312 158.480469 122.980469 159.53125 122.539062 160.59375 C 122.097656 161.65625 121.683594 162.730469 121.296875 163.8125 C 120.910156 164.898438 120.550781 165.988281 120.214844 167.089844 C 119.882812 168.191406 119.574219 169.300781 119.292969 170.417969 C 119.015625 171.53125 118.761719 172.65625 118.539062 173.785156 C 118.3125 174.914062 118.117188 176.046875 117.949219 177.183594 C 117.78125 178.320312 117.640625 179.464844 117.527344 180.609375 C 117.414062 181.753906 117.328125 182.902344 117.273438 184.050781 C 117.214844 185.199219 117.1875 186.351562 117.1875 187.5 C 117.1875 188.652344 117.214844 189.800781 117.273438 190.949219 C 117.328125 192.101562 117.414062 193.246094 117.527344 194.394531 C 117.640625 195.539062 117.78125 196.679688 117.949219 197.816406 C 118.117188 198.957031 118.3125 200.089844 118.539062 201.21875 C 118.761719 202.347656 119.015625 203.46875 119.292969 204.585938 C 119.574219 205.703125 119.882812 206.808594 120.214844 207.910156 C 120.550781 209.011719 120.910156 210.105469 121.296875 211.1875 C 121.683594 212.273438 122.097656 213.34375 122.539062 214.410156 C 122.980469 215.472656 123.445312 216.523438 123.9375 217.5625 C 124.429688 218.605469 124.949219 219.632812 125.488281 220.644531 C 126.03125 221.660156 126.597656 222.660156 127.191406 223.648438 C 127.78125 224.636719 128.398438 225.609375 129.039062 226.5625 C 129.675781 227.519531 130.339844 228.460938 131.023438 229.386719 C 131.710938 230.308594 132.417969 231.21875 133.148438 232.105469 C 133.878906 232.996094 134.628906 233.867188 135.402344 234.71875 C 136.175781 235.574219 136.96875 236.40625 137.78125 237.21875 C 138.59375 238.03125 139.429688 238.828125 140.28125 239.597656 C 141.132812 240.371094 142.003906 241.125 142.894531 241.851562 C 143.785156 242.582031 144.691406 243.289062 145.613281 243.976562 C 146.539062 244.660156 147.480469 245.324219 148.4375 245.964844 C 149.394531 246.601562 150.363281 247.21875 151.351562 247.808594 C 152.339844 248.402344 153.339844 248.96875 154.355469 249.511719 C 155.371094 250.054688 156.398438 250.570312 157.4375 251.0625 C 158.476562 251.554688 159.53125 252.019531 160.59375 252.460938 C 161.65625 252.902344 162.730469 253.316406 163.8125 253.703125 C 164.894531 254.089844 165.988281 254.453125 167.089844 254.785156 C 168.191406 255.121094 169.300781 255.425781 170.414062 255.707031 C 171.53125 255.984375 172.652344 256.238281 173.78125 256.460938 C 174.910156 256.6875 176.042969 256.882812 177.183594 257.050781 C 178.320312 257.222656 179.464844 257.363281 180.609375 257.476562 C 181.753906 257.585938 182.902344 257.671875 184.050781 257.730469 C 185.199219 257.785156 186.347656 257.8125 187.5 257.8125 C 188.652344 257.8125 189.800781 257.785156 190.949219 257.730469 C 192.097656 257.671875 193.246094 257.585938 194.390625 257.476562 C 195.535156 257.363281 196.679688 257.222656 197.816406 257.050781 C 198.957031 256.882812 200.089844 256.6875 201.21875 256.460938 C 202.347656 256.238281 203.46875 255.984375 204.585938 255.707031 C 205.699219 255.425781 206.808594 255.121094 207.910156 254.785156 C 209.011719 254.453125 210.105469 254.089844 211.1875 253.703125 C 212.269531 253.316406 213.34375 252.902344 214.40625 252.460938 C 215.46875 252.019531 216.523438 251.554688 217.5625 251.0625 C 218.601562 250.570312 219.628906 250.054688 220.644531 249.511719 C 221.660156 248.96875 222.660156 248.402344 223.648438 247.808594 C 224.636719 247.21875 225.605469 246.601562 226.5625 245.964844 C 227.519531 245.324219 228.460938 244.660156 229.386719 243.976562 C 230.308594 243.289062 231.214844 242.582031 232.105469 241.851562 C 232.996094 241.125 233.867188 240.371094 234.71875 239.597656 C 235.570312 238.828125 236.40625 238.03125 237.21875 237.21875 C 238.03125 236.40625 238.824219 235.574219 239.597656 234.71875 C 240.371094 233.867188 241.121094 232.996094 241.851562 232.105469 C 242.582031 231.21875 243.289062 230.308594 243.976562 229.386719 C 244.660156 228.460938 245.324219 227.519531 245.960938 226.5625 C 246.601562 225.609375 247.21875 224.636719 247.808594 223.648438 C 248.402344 222.660156 248.96875 221.660156 249.511719 220.644531 C 250.050781 219.632812 250.570312 218.605469 251.0625 217.5625 C 251.554688 216.523438 252.019531 215.472656 252.460938 214.410156 C 252.902344 213.34375 253.316406 212.273438 253.703125 211.1875 C 254.089844 210.105469 254.449219 209.011719 254.785156 207.910156 C 255.117188 206.808594 255.425781 205.703125 255.707031 204.585938 C 255.984375 203.46875 256.238281 202.347656 256.460938 201.21875 C 256.6875 200.089844 256.882812 198.957031 257.050781 197.816406 C 257.21875 196.679688 257.359375 195.539062 257.472656 194.394531 C 257.585938 193.246094 257.671875 192.101562 257.726562 190.949219 C 257.785156 189.800781 257.8125 188.652344 257.8125 187.5 C 257.8125 186.351562 257.78125 185.199219 257.722656 184.050781 C 257.667969 182.902344 257.582031 181.757812 257.464844 180.613281 C 257.351562 179.464844 257.210938 178.324219 257.042969 177.1875 C 256.871094 176.050781 256.671875 174.917969 256.449219 173.789062 C 256.222656 172.660156 255.96875 171.539062 255.691406 170.421875 C 255.410156 169.308594 255.101562 168.199219 254.765625 167.097656 C 254.433594 166 254.070312 164.90625 253.683594 163.824219 C 253.292969 162.742188 252.878906 161.667969 252.4375 160.605469 C 252 159.542969 251.53125 158.492188 251.039062 157.453125 C 250.546875 156.414062 250.03125 155.386719 249.488281 154.371094 C 248.945312 153.355469 248.375 152.355469 247.785156 151.371094 C 247.195312 150.382812 246.578125 149.414062 245.9375 148.457031 C 245.300781 147.5 244.636719 146.558594 243.953125 145.636719 C 243.265625 144.710938 242.558594 143.804688 241.828125 142.917969 C 241.097656 142.027344 240.347656 141.15625 239.574219 140.304688 C 238.800781 139.453125 238.007812 138.617188 237.195312 137.804688 C 236.382812 136.992188 235.550781 136.199219 234.695312 135.425781 C 233.84375 134.652344 232.972656 133.902344 232.085938 133.171875 C 231.195312 132.441406 230.289062 131.734375 229.363281 131.050781 C 228.441406 130.363281 227.5 129.703125 226.546875 129.0625 C 225.589844 128.421875 224.617188 127.808594 223.628906 127.214844 C 222.644531 126.625 221.644531 126.058594 220.628906 125.515625 C 219.613281 124.972656 218.589844 124.453125 217.546875 123.960938 C 216.507812 123.46875 215.457031 123.003906 214.394531 122.5625 C 213.332031 122.121094 212.261719 121.707031 211.175781 121.316406 C 210.09375 120.929688 209.003906 120.566406 207.902344 120.234375 C 206.800781 119.898438 205.691406 119.589844 204.578125 119.3125 C 203.460938 119.03125 202.339844 118.777344 201.210938 118.550781 C 200.082031 118.328125 198.949219 118.128906 197.8125 117.960938 C 196.675781 117.789062 195.535156 117.648438 194.390625 117.535156 C 193.246094 117.421875 192.097656 117.335938 190.949219 117.277344 C 189.800781 117.21875 188.648438 117.191406 187.5 117.1875 Z M 187.5 234.375 C 185.964844 234.375 184.433594 234.300781 182.90625 234.148438 C 181.378906 234 179.859375 233.773438 178.355469 233.476562 C 176.847656 233.175781 175.363281 232.804688 173.894531 232.359375 C 172.421875 231.910156 170.980469 231.394531 169.5625 230.808594 C 168.144531 230.21875 166.757812 229.566406 165.402344 228.839844 C 164.050781 228.117188 162.734375 227.328125 161.457031 226.476562 C 160.179688 225.625 158.949219 224.710938 157.761719 223.734375 C 156.574219 222.761719 155.441406 221.730469 154.355469 220.648438 C 153.269531 219.5625 152.238281 218.425781 151.265625 217.238281 C 150.292969 216.050781 149.378906 214.820312 148.523438 213.542969 C 147.671875 212.265625 146.882812 210.953125 146.160156 209.597656 C 145.4375 208.242188 144.78125 206.859375 144.191406 205.4375 C 143.605469 204.019531 143.089844 202.578125 142.644531 201.109375 C 142.199219 199.640625 141.824219 198.152344 141.527344 196.644531 C 141.226562 195.140625 141 193.625 140.851562 192.09375 C 140.699219 190.566406 140.625 189.035156 140.625 187.5 C 140.625 185.964844 140.699219 184.433594 140.851562 182.90625 C 141 181.378906 141.226562 179.863281 141.527344 178.355469 C 141.824219 176.851562 142.199219 175.363281 142.644531 173.894531 C 143.089844 172.425781 143.605469 170.980469 144.191406 169.5625 C 144.78125 168.144531 145.4375 166.757812 146.160156 165.402344 C 146.882812 164.050781 147.671875 162.734375 148.523438 161.457031 C 149.378906 160.183594 150.292969 158.949219 151.265625 157.765625 C 152.238281 156.578125 153.269531 155.441406 154.355469 154.355469 C 155.441406 153.269531 156.574219 152.238281 157.761719 151.265625 C 158.949219 150.292969 160.179688 149.378906 161.457031 148.527344 C 162.734375 147.671875 164.050781 146.882812 165.402344 146.160156 C 166.757812 145.4375 168.144531 144.78125 169.5625 144.195312 C 170.980469 143.605469 172.421875 143.089844 173.894531 142.644531 C 175.363281 142.199219 176.847656 141.824219 178.355469 141.527344 C 179.859375 141.226562 181.378906 141.003906 182.90625 140.851562 C 184.433594 140.699219 185.964844 140.625 187.5 140.625 C 189.035156 140.625 190.566406 140.699219 192.09375 140.851562 C 193.621094 141.003906 195.140625 141.226562 196.644531 141.527344 C 198.152344 141.824219 199.636719 142.199219 201.105469 142.644531 C 202.578125 143.089844 204.019531 143.605469 205.4375 144.195312 C 206.855469 144.78125 208.242188 145.4375 209.597656 146.160156 C 210.949219 146.882812 212.265625 147.671875 213.542969 148.527344 C 214.820312 149.378906 216.050781 150.292969 217.238281 151.265625 C 218.425781 152.238281 219.558594 153.269531 220.644531 154.355469 C 221.730469 155.441406 222.761719 156.578125 223.734375 157.765625 C 224.707031 158.949219 225.621094 160.183594 226.476562 161.457031 C 227.328125 162.734375 228.117188 164.050781 228.839844 165.402344 C 229.5625 166.757812 230.21875 168.144531 230.808594 169.5625 C 231.394531 170.980469 231.910156 172.425781 232.355469 173.894531 C 232.800781 175.363281 233.175781 176.851562 233.472656 178.355469 C 233.773438 179.863281 234 181.378906 234.148438 182.90625 C 234.300781 184.433594 234.375 185.964844 234.375 187.5 C 234.375 189.035156 234.296875 190.566406 234.144531 192.09375 C 233.992188 193.621094 233.765625 195.136719 233.464844 196.640625 C 233.164062 198.148438 232.792969 199.632812 232.34375 201.101562 C 231.898438 202.570312 231.378906 204.011719 230.792969 205.429688 C 230.203125 206.847656 229.546875 208.234375 228.824219 209.585938 C 228.101562 210.941406 227.3125 212.253906 226.457031 213.53125 C 225.605469 214.804688 224.691406 216.039062 223.71875 217.222656 C 222.746094 218.410156 221.714844 219.546875 220.628906 220.628906 C 219.542969 221.714844 218.410156 222.746094 217.222656 223.71875 C 216.035156 224.691406 214.804688 225.605469 213.53125 226.460938 C 212.253906 227.3125 210.9375 228.101562 209.585938 228.824219 C 208.234375 229.550781 206.847656 230.207031 205.429688 230.792969 C 204.011719 231.382812 202.570312 231.898438 201.101562 232.34375 C 199.632812 232.792969 198.144531 233.164062 196.640625 233.464844 C 195.136719 233.765625 193.621094 233.992188 192.09375 234.144531 C 190.566406 234.296875 189.035156 234.375 187.5 234.375 Z M 187.5 234.375 " fill-opacity="1" fill-rule="nonzero"/></svg>