<svg width="42" height="42" viewBox="0 0 42 42" fill="none" xmlns="http://www.w3.org/2000/svg">
<g id="logos:facebook" clip-path="url(#clip0_1_103)">
<path id="Vector" d="M41.9995 20.9999C41.9995 9.40205 32.5974 -4.57764e-05 20.9995 -4.57764e-05C9.4016 -4.57764e-05 -0.000488281 9.40188 -0.000488281 20.9999C-0.000488281 31.4816 7.67895 40.1695 17.7183 41.7448L17.7183 27.0703L12.3862 27.0703L12.3862 20.9999L17.7183 20.9999L17.7183 16.3734C17.7183 11.1103 20.8535 8.20308 25.6502 8.20308C27.9479 8.20308 30.3511 8.61323 30.3511 8.61323L30.3511 13.7812L27.7031 13.7812C25.0942 13.7812 24.2808 15.4 24.2808 17.0608V20.9999H30.105L29.1739 27.0703H24.2808L24.2808 41.7448C34.3201 40.1695 41.9995 31.4817 41.9995 20.9999Z" fill="#1877F2"/>
<path id="Vector_2" d="M29.1739 27.0703L30.105 21H24.2808V17.0608C24.2808 15.3998 25.0943 13.7812 27.7031 13.7812L30.3511 13.7812L30.3511 8.61324C30.3511 8.61324 27.9479 8.20308 25.6502 8.20308C20.8535 8.20308 17.7183 11.1103 17.7183 16.3734L17.7183 21L12.3862 21L12.3862 27.0703L17.7183 27.0703L17.7183 41.7448C18.8037 41.9149 19.9008 42.0002 20.9995 41.9999C22.0982 42.0003 23.1953 41.915 24.2808 41.7448L24.2808 27.0703H29.1739Z" fill="white"/>
</g>
<defs>
<clipPath id="clip0_1_103">
<rect width="42" height="42" fill="white" transform="translate(-0.000488281 -4.57764e-05)"/>
</clipPath>
</defs>
</svg>
