<svg xmlns="http://www.w3.org/2000/svg" version="1.1" xmlns:xlink="http://www.w3.org/1999/xlink" xmlns:svgjs="http://svgjs.dev/svgjs" width="1280" height="560" preserveAspectRatio="none" viewBox="0 0 1280 560"><g mask="url(&quot;#SvgjsMask1550&quot;)" fill="none"><rect width="1280" height="560" x="0" y="0" fill="url(&quot;#SvgjsLinearGradient1551&quot;)"></rect><path d="M1280 0L869.81 0L1280 211.34z" fill="rgba(255, 255, 255, .1)"></path><path d="M869.81 0L1280 211.34L1280 404.24L484.9599999999999 0z" fill="rgba(255, 255, 255, .075)"></path><path d="M484.96000000000004 0L1280 404.24L1280 496.11L239.82000000000005 0z" fill="rgba(255, 255, 255, .05)"></path><path d="M239.82000000000016 0L1280 496.11L1280 506.46000000000004L97.88000000000017 0z" fill="rgba(255, 255, 255, .025)"></path><path d="M0 560L481.99 560L0 389.39z" fill="rgba(0, 0, 0, .1)"></path><path d="M0 389.39L481.99 560L800.11 560L0 338.51z" fill="rgba(0, 0, 0, .075)"></path><path d="M0 338.51L800.11 560L852.15 560L0 129.01z" fill="rgba(0, 0, 0, .05)"></path><path d="M0 129.01L852.15 560L927.11 560L0 61.769999999999996z" fill="rgba(0, 0, 0, .025)"></path></g><defs><mask id="SvgjsMask1550"><rect width="1280" height="560" fill="#ffffff"></rect></mask><linearGradient x1="14.06%" y1="-32.14%" x2="85.94%" y2="132.14%" gradientUnits="userSpaceOnUse" id="SvgjsLinearGradient1551"><stop stop-color="#0e2a47" offset="0"></stop><stop stop-color="rgba(26, 0, 97, 1)" offset="1"></stop></linearGradient></defs></svg>